<?xml version="1.0" standalone="no"?>
<!DOCTYPE svg PUBLIC "-//W3C//DTD SVG 20010904//EN"
 "http://www.w3.org/TR/2001/REC-SVG-20010904/DTD/svg10.dtd">
<svg version="1.0" xmlns="http://www.w3.org/2000/svg"
 width="260.000000pt" height="260.000000pt" viewBox="0 0 260.000000 260.000000"
 preserveAspectRatio="xMidYMid meet">
<metadata>
Created by potrace 1.11, written by Peter Selinger 2001-2013
</metadata>
<g transform="translate(0.000000,260.000000) scale(0.100000,-0.100000)"
fill="#000000" stroke="none">
<path d="M1025 2501 c-129 -32 -203 -68 -323 -156 -89 -66 -165 -145 -215
-223 -65 -102 -122 -235 -137 -319 -21 -119 -82 -294 -131 -374 -36 -57 -69
-74 -116 -58 -44 14 -63 6 -63 -27 0 -29 46 -109 89 -158 29 -32 78 -56 116
-56 14 0 25 -3 25 -7 0 -26 -32 -289 -41 -343 -16 -90 -50 -181 -130 -347 -38
-78 -69 -149 -69 -158 0 -31 27 -25 144 30 196 92 290 163 348 263 l25 43 12
-48 c15 -61 62 -165 121 -268 48 -84 102 -190 119 -238 20 -52 41 -29 123 133
68 133 82 168 96 248 l16 93 36 -98 c39 -107 61 -153 149 -318 48 -90 63 -110
81 -110 18 0 33 20 81 110 88 165 110 211 149 318 l36 98 16 -93 c14 -80 28
-115 96 -248 82 -162 103 -185 123 -133 17 48 71 154 119 238 59 103 106 207
121 268 l12 48 25 -43 c58 -100 152 -171 348 -263 117 -55 144 -61 144 -30 0
9 -31 80 -69 158 -80 166 -114 257 -130 347 -9 54 -41 317 -41 343 0 4 11 7
25 7 38 0 87 24 116 56 43 49 89 129 89 158 0 33 -19 41 -63 27 -47 -16 -80 1
-116 58 -49 80 -110 255 -131 374 -15 84 -72 217 -137 319 -75 118 -227 250
-371 322 -37 18 -118 45 -180 60 -98 23 -133 26 -270 25 -136 -1 -172 -4 -267
-28z"/>
</g>
</svg>
