<?xml version="1.0" standalone="no"?>
<!DOCTYPE svg PUBLIC "-//W3C//DTD SVG 20010904//EN"
 "http://www.w3.org/TR/2001/REC-SVG-20010904/DTD/svg10.dtd">
<svg version="1.0" xmlns="http://www.w3.org/2000/svg"
 width="260.000000pt" height="260.000000pt" viewBox="0 0 260.000000 260.000000"
 preserveAspectRatio="xMidYMid meet">
<metadata>
Created by potrace 1.11, written by Peter Selinger 2001-2013
</metadata>
<g transform="translate(0.000000,260.000000) scale(0.100000,-0.100000)"
fill="#000000" stroke="none">
<path d="M1045 2451 c-126 -31 -205 -69 -313 -149 -84 -61 -150 -129 -194
-199 -65 -102 -138 -274 -138 -325 0 -35 -69 -247 -106 -324 -42 -89 -99 -144
-150 -144 l-35 0 32 -46 c39 -57 82 -84 136 -84 23 0 44 -3 46 -8 7 -10 -30
-328 -49 -432 -18 -98 -55 -196 -119 -316 -25 -46 -42 -84 -38 -84 5 0 55 23
113 52 84 42 119 66 175 123 60 59 75 82 102 150 23 60 35 80 49 80 15 0 21
-12 31 -65 16 -90 65 -220 118 -315 25 -44 62 -113 82 -152 21 -40 40 -73 43
-73 12 0 89 156 114 230 15 46 29 123 37 200 18 185 49 203 87 50 32 -127 91
-275 157 -395 31 -55 58 -110 61 -122 8 -29 20 -29 28 -1 3 13 30 68 61 123
66 120 125 268 157 395 38 153 69 135 87 -50 8 -77 22 -154 37 -200 25 -74
102 -230 114 -230 3 0 22 33 43 73 20 39 57 108 82 152 53 95 102 225 118 315
10 53 16 65 31 65 14 0 26 -20 49 -80 27 -68 42 -91 102 -150 56 -57 91 -81
175 -123 58 -29 108 -52 113 -52 4 0 -13 38 -38 84 -64 120 -101 218 -119 316
-19 104 -56 422 -49 432 2 5 23 8 46 8 54 0 97 27 136 84 l32 46 -35 0 c-51 0
-108 55 -150 144 -37 77 -106 289 -106 324 0 51 -73 223 -138 325 -67 106
-202 222 -339 290 -176 88 -458 113 -678 58z m1 -411 c84 -39 178 -193 190
-315 7 -65 7 -65 -18 -65 -24 0 -26 5 -33 57 -13 106 -93 242 -162 274 -44 21
-119 24 -148 6 -47 -27 -86 -63 -108 -96 -29 -46 -67 -161 -67 -206 0 -31 -3
-35 -25 -35 -23 0 -25 4 -25 45 0 57 36 168 71 221 26 38 91 98 134 122 34 19
141 14 191 -8z m697 8 c42 -22 109 -82 136 -122 35 -53 71 -164 71 -221 0 -41
-2 -45 -25 -45 -22 0 -25 4 -25 35 0 45 -38 160 -67 206 -22 33 -61 69 -108
96 -29 18 -104 15 -148 -6 -69 -32 -149 -168 -162 -274 -7 -52 -9 -57 -33 -57
-25 0 -25 0 -18 65 12 120 106 275 188 314 49 23 156 28 191 9z"/>
</g>
</svg>
