<?xml version="1.0" standalone="no"?>
<!DOCTYPE svg PUBLIC "-//W3C//DTD SVG 20010904//EN"
 "http://www.w3.org/TR/2001/REC-SVG-20010904/DTD/svg10.dtd">
<svg version="1.0" xmlns="http://www.w3.org/2000/svg"
 width="150.000000pt" height="150.000000pt" viewBox="0 0 150.000000 150.000000"
 preserveAspectRatio="xMidYMid meet">
<metadata>
Created by potrace 1.11, written by Peter Selinger 2001-2013
</metadata>
<g transform="translate(0.000000,150.000000) scale(0.100000,-0.100000)"
fill="#000000" stroke="none">
<path d="M530 1475 c-122 -37 -201 -78 -288 -150 -44 -37 -83 -73 -85 -79 -3
-6 -26 -39 -52 -73 -30 -41 -57 -92 -76 -149 l-29 -86 0 -399 c0 -264 3 -399
10 -399 6 0 28 11 49 24 21 14 55 32 75 40 20 8 63 41 95 71 49 47 60 53 64
38 3 -10 10 -38 17 -63 15 -59 80 -142 158 -202 34 -27 62 -45 62 -41 0 5 18
31 41 58 47 57 93 144 104 195 14 75 15 75 48 12 23 -42 61 -86 131 -151 l99
-92 25 37 c42 62 89 149 96 179 7 28 8 27 43 -36 41 -75 105 -145 141 -154 18
-4 31 0 49 17 44 41 111 142 124 188 7 25 17 50 22 57 16 22 37 133 43 231 3
53 1 174 -5 269 -10 171 -11 173 -49 251 -44 91 -138 222 -158 222 -8 0 -14 4
-14 9 0 18 -132 110 -189 131 -167 65 -196 70 -349 69 -101 -1 -142 -6 -202
-24z"/>
</g>
</svg>
